<svg width="30" height="30" viewBox="0 0 30 30" fill="none" xmlns="http://www.w3.org/2000/svg">
<path d="M11.25 15C11.25 15.9946 11.6451 16.9484 12.3483 17.6517C13.0516 18.3549 14.0054 18.75 15 18.75C15.9946 18.75 16.9484 18.3549 17.6516 17.6517C18.3549 16.9484 18.75 15.9946 18.75 15" stroke="#222222" stroke-linecap="round"/>
<path d="M5.625 10.5861C5.625 9.98498 5.625 9.68441 5.71082 9.40098C5.79663 9.11755 5.96335 8.86747 6.2968 8.3673L6.93753 7.4062C7.51882 6.53427 7.80947 6.0983 8.25165 5.86165C8.69384 5.625 9.2178 5.625 10.2657 5.625H19.7343C20.7822 5.625 21.3062 5.625 21.7483 5.86165C22.1905 6.0983 22.4812 6.53427 23.0625 7.4062L23.7032 8.3673C24.0366 8.86747 24.2034 9.11755 24.2892 9.40098C24.375 9.68441 24.375 9.98498 24.375 10.5861V20.375C24.375 22.2606 24.375 23.2034 23.7892 23.7892C23.2034 24.375 22.2606 24.375 20.375 24.375H9.625C7.73938 24.375 6.79657 24.375 6.21079 23.7892C5.625 23.2034 5.625 22.2606 5.625 20.375V10.5861Z" stroke="#222222"/>
<path d="M5.625 11.875H24.375" stroke="#222222" stroke-linecap="round"/>
</svg>
