<svg width="65" height="64" viewBox="0 0 65 64" fill="none" xmlns="http://www.w3.org/2000/svg">
<rect x="0.5" width="64" height="64" rx="32" fill="#F2A356"/>
<path d="M32.5 44C39.1274 44 44.5 38.6274 44.5 32C44.5 25.3726 39.1274 20 32.5 20C25.8726 20 20.5 25.3726 20.5 32C20.5 38.6274 25.8726 44 32.5 44Z" stroke="white" stroke-width="2"/>
<path d="M32.5007 40.6663C32.8688 40.6663 33.1673 40.3679 33.1673 39.9997C33.1673 39.6315 32.8688 39.333 32.5007 39.333C32.1325 39.333 31.834 39.6315 31.834 39.9997C31.834 40.3679 32.1325 40.6663 32.5007 40.6663Z" fill="white" stroke="white"/>
<path d="M32.5 37.3333V35.4413C32.5 34.1827 33.3053 33.0653 34.5 32.6667C35.0823 32.4725 35.5888 32.1001 35.9478 31.6021C36.3067 31.1041 36.4999 30.5059 36.5 29.892V29.208C36.5 27.0667 34.7667 25.3333 32.6253 25.3333H32.5C31.4391 25.3333 30.4217 25.7548 29.6716 26.5049C28.9214 27.2551 28.5 28.2725 28.5 29.3333" stroke="white" stroke-width="2"/>
</svg>
