<svg width="353" height="52" viewBox="0 0 353 52" fill="none" xmlns="http://www.w3.org/2000/svg">
<path d="M14.934 18.276C13.8447 18.276 12.8693 18.4913 12.008 18.922C11.172 19.3527 10.4627 19.9733 9.88 20.784C9.29733 21.5693 8.854 22.532 8.55 23.672C8.27133 24.812 8.132 26.0913 8.132 27.51C8.132 29.4353 8.36 31.082 8.816 32.45C9.29733 33.7927 10.0447 34.8187 11.058 35.528C12.0713 36.2373 13.3633 36.592 14.934 36.592C16.0487 36.592 17.1507 36.4653 18.24 36.212C19.3547 35.9587 20.558 35.604 21.85 35.148V39.974C20.6593 40.4553 19.4813 40.81 18.316 41.038C17.1507 41.266 15.846 41.38 14.402 41.38C11.6153 41.38 9.31 40.81 7.486 39.67C5.68733 38.5047 4.35733 36.8833 3.496 34.806C2.63467 32.7033 2.204 30.2587 2.204 27.472C2.204 25.42 2.48267 23.5453 3.04 21.848C3.59733 20.1253 4.408 18.6433 5.472 17.402C6.56133 16.1607 7.89133 15.198 9.462 14.514C11.058 13.83 12.882 13.488 14.934 13.488C16.2767 13.488 17.6193 13.6653 18.962 14.02C20.33 14.3493 21.6347 14.8053 22.876 15.388L21.014 20.062C20.0007 19.5807 18.9747 19.1627 17.936 18.808C16.9227 18.4533 15.922 18.276 14.934 18.276ZM46.3873 30.588C46.3873 32.3107 46.1466 33.8433 45.6653 35.186C45.2093 36.5287 44.538 37.6687 43.6513 38.606C42.79 39.518 41.7386 40.2147 40.4973 40.696C39.256 41.152 37.85 41.38 36.2793 41.38C34.8353 41.38 33.4926 41.152 32.2513 40.696C31.0353 40.2147 29.984 39.518 29.0973 38.606C28.2106 37.6687 27.514 36.5287 27.0073 35.186C26.526 33.8433 26.2853 32.3107 26.2853 30.588C26.2853 28.2827 26.6906 26.3447 27.5013 24.774C28.312 23.178 29.4773 21.962 30.9973 21.126C32.5173 20.29 34.316 19.872 36.3933 19.872C38.344 19.872 40.0666 20.29 41.5613 21.126C43.056 21.962 44.234 23.178 45.0953 24.774C45.9566 26.3447 46.3873 28.2827 46.3873 30.588ZM32.0613 30.588C32.0613 31.956 32.2006 33.1087 32.4793 34.046C32.7833 34.958 33.252 35.6547 33.8853 36.136C34.5186 36.592 35.342 36.82 36.3553 36.82C37.3686 36.82 38.1793 36.592 38.7873 36.136C39.4206 35.6547 39.8766 34.958 40.1553 34.046C40.4593 33.1087 40.6113 31.956 40.6113 30.588C40.6113 29.22 40.4593 28.08 40.1553 27.168C39.8766 26.256 39.4206 25.572 38.7873 25.116C38.154 24.66 37.3306 24.432 36.3173 24.432C34.8226 24.432 33.7333 24.9513 33.0493 25.99C32.3906 27.0033 32.0613 28.536 32.0613 30.588ZM70.2947 30.588C70.2947 32.3107 70.054 33.8433 69.5727 35.186C69.1167 36.5287 68.4453 37.6687 67.5587 38.606C66.6973 39.518 65.646 40.2147 64.4047 40.696C63.1633 41.152 61.7573 41.38 60.1867 41.38C58.7427 41.38 57.4 41.152 56.1587 40.696C54.9427 40.2147 53.8913 39.518 53.0047 38.606C52.118 37.6687 51.4213 36.5287 50.9147 35.186C50.4333 33.8433 50.1927 32.3107 50.1927 30.588C50.1927 28.2827 50.598 26.3447 51.4087 24.774C52.2193 23.178 53.3847 21.962 54.9047 21.126C56.4247 20.29 58.2233 19.872 60.3007 19.872C62.2513 19.872 63.974 20.29 65.4687 21.126C66.9633 21.962 68.1413 23.178 69.0027 24.774C69.864 26.3447 70.2947 28.2827 70.2947 30.588ZM55.9687 30.588C55.9687 31.956 56.108 33.1087 56.3867 34.046C56.6907 34.958 57.1593 35.6547 57.7927 36.136C58.426 36.592 59.2493 36.82 60.2627 36.82C61.276 36.82 62.0867 36.592 62.6947 36.136C63.328 35.6547 63.784 34.958 64.0627 34.046C64.3667 33.1087 64.5187 31.956 64.5187 30.588C64.5187 29.22 64.3667 28.08 64.0627 27.168C63.784 26.256 63.328 25.572 62.6947 25.116C62.0613 24.66 61.238 24.432 60.2247 24.432C58.73 24.432 57.6407 24.9513 56.9567 25.99C56.298 27.0033 55.9687 28.536 55.9687 30.588ZM81.016 41H75.354V12.12H81.016V41ZM99.2441 41L92.7081 19.72H92.5561C92.5815 20.2267 92.6195 20.9867 92.6701 22C92.7208 23.0133 92.7715 24.1027 92.8221 25.268C92.8728 26.408 92.8981 27.4467 92.8981 28.384V41H87.7681V13.868H95.5961L102.018 34.616H102.132L108.934 13.868H116.762V41H111.404V28.156C111.404 27.2947 111.417 26.3067 111.442 25.192C111.493 24.0773 111.531 23.026 111.556 22.038C111.607 21.0247 111.645 20.2647 111.67 19.758H111.518L104.526 41H99.2441ZM132.052 19.834C134.838 19.834 136.966 20.442 138.436 21.658C139.93 22.8487 140.678 24.6853 140.678 27.168V41H136.726L135.624 38.188H135.472C134.889 38.9227 134.281 39.5307 133.648 40.012C133.04 40.4933 132.33 40.8353 131.52 41.038C130.734 41.266 129.759 41.38 128.594 41.38C127.378 41.38 126.276 41.152 125.288 40.696C124.325 40.2147 123.565 39.4927 123.008 38.53C122.45 37.542 122.172 36.3007 122.172 34.806C122.172 32.602 122.944 30.9807 124.49 29.942C126.035 28.878 128.353 28.2953 131.444 28.194L135.054 28.08V27.168C135.054 26.0787 134.762 25.2807 134.18 24.774C133.622 24.2673 132.837 24.014 131.824 24.014C130.81 24.014 129.822 24.166 128.86 24.47C127.897 24.7487 126.934 25.1033 125.972 25.534L124.11 21.696C125.224 21.1133 126.453 20.6573 127.796 20.328C129.164 19.9987 130.582 19.834 132.052 19.834ZM132.85 31.462C131.026 31.5127 129.759 31.842 129.05 32.45C128.34 33.058 127.986 33.856 127.986 34.844C127.986 35.7053 128.239 36.326 128.746 36.706C129.252 37.0607 129.911 37.238 130.722 37.238C131.938 37.238 132.964 36.8833 133.8 36.174C134.636 35.4393 135.054 34.4133 135.054 33.096V31.386L132.85 31.462ZM158.633 19.872C160.863 19.872 162.649 20.48 163.991 21.696C165.334 22.8867 166.005 24.812 166.005 27.472V41H160.343V28.878C160.343 27.3833 160.077 26.2687 159.545 25.534C159.013 24.774 158.165 24.394 156.999 24.394C155.277 24.394 154.099 24.9893 153.465 26.18C152.832 27.3453 152.515 29.03 152.515 31.234V41H146.853V20.252H151.185L151.945 22.912H152.249C152.705 22.2027 153.263 21.6327 153.921 21.202C154.58 20.746 155.315 20.4167 156.125 20.214C156.936 19.986 157.772 19.872 158.633 19.872Z" fill="#1570EF"/>
<path d="M194.391 41L187.855 19.72H187.703C187.728 20.2267 187.766 20.9867 187.817 22C187.868 23.0133 187.918 24.1027 187.969 25.268C188.02 26.408 188.045 27.4467 188.045 28.384V41H182.915V13.868H190.743L197.165 34.616H197.279L204.081 13.868H211.909V41H206.551V28.156C206.551 27.2947 206.564 26.3067 206.589 25.192C206.64 24.0773 206.678 23.026 206.703 22.038C206.754 21.0247 206.792 20.2647 206.817 19.758H206.665L199.673 41H194.391ZM227.199 19.834C229.985 19.834 232.113 20.442 233.583 21.658C235.077 22.8487 235.825 24.6853 235.825 27.168V41H231.873L230.771 38.188H230.619C230.036 38.9227 229.428 39.5307 228.795 40.012C228.187 40.4933 227.477 40.8353 226.667 41.038C225.881 41.266 224.906 41.38 223.741 41.38C222.525 41.38 221.423 41.152 220.435 40.696C219.472 40.2147 218.712 39.4927 218.155 38.53C217.597 37.542 217.319 36.3007 217.319 34.806C217.319 32.602 218.091 30.9807 219.637 29.942C221.182 28.878 223.5 28.2953 226.591 28.194L230.201 28.08V27.168C230.201 26.0787 229.909 25.2807 229.327 24.774C228.769 24.2673 227.984 24.014 226.971 24.014C225.957 24.014 224.969 24.166 224.007 24.47C223.044 24.7487 222.081 25.1033 221.119 25.534L219.257 21.696C220.371 21.1133 221.6 20.6573 222.943 20.328C224.311 19.9987 225.729 19.834 227.199 19.834ZM227.997 31.462C226.173 31.5127 224.906 31.842 224.197 32.45C223.487 33.058 223.133 33.856 223.133 34.844C223.133 35.7053 223.386 36.326 223.893 36.706C224.399 37.0607 225.058 37.238 225.869 37.238C227.085 37.238 228.111 36.8833 228.947 36.174C229.783 35.4393 230.201 34.4133 230.201 33.096V31.386L227.997 31.462ZM253.78 19.872C256.01 19.872 257.796 20.48 259.138 21.696C260.481 22.8867 261.152 24.812 261.152 27.472V41H255.49V28.878C255.49 27.3833 255.224 26.2687 254.692 25.534C254.16 24.774 253.312 24.394 252.146 24.394C250.424 24.394 249.246 24.9893 248.612 26.18C247.979 27.3453 247.662 29.03 247.662 31.234V41H242V20.252H246.332L247.092 22.912H247.396C247.852 22.2027 248.41 21.6327 249.068 21.202C249.727 20.746 250.462 20.4167 251.272 20.214C252.083 19.986 252.919 19.872 253.78 19.872ZM275.867 19.834C278.654 19.834 280.782 20.442 282.251 21.658C283.746 22.8487 284.493 24.6853 284.493 27.168V41H280.541L279.439 38.188H279.287C278.704 38.9227 278.096 39.5307 277.463 40.012C276.855 40.4933 276.146 40.8353 275.335 41.038C274.55 41.266 273.574 41.38 272.409 41.38C271.193 41.38 270.091 41.152 269.103 40.696C268.14 40.2147 267.38 39.4927 266.823 38.53C266.266 37.542 265.987 36.3007 265.987 34.806C265.987 32.602 266.76 30.9807 268.305 29.942C269.85 28.878 272.168 28.2953 275.259 28.194L278.869 28.08V27.168C278.869 26.0787 278.578 25.2807 277.995 24.774C277.438 24.2673 276.652 24.014 275.639 24.014C274.626 24.014 273.638 24.166 272.675 24.47C271.712 24.7487 270.75 25.1033 269.787 25.534L267.925 21.696C269.04 21.1133 270.268 20.6573 271.611 20.328C272.979 19.9987 274.398 19.834 275.867 19.834ZM276.665 31.462C274.841 31.5127 273.574 31.842 272.865 32.45C272.156 33.058 271.801 33.856 271.801 34.844C271.801 35.7053 272.054 36.326 272.561 36.706C273.068 37.0607 273.726 37.238 274.537 37.238C275.753 37.238 276.779 36.8833 277.615 36.174C278.451 35.4393 278.869 34.4133 278.869 33.096V31.386L276.665 31.462ZM297.395 19.872C298.661 19.872 299.801 20.1253 300.815 20.632C301.828 21.1387 302.689 21.8987 303.399 22.912H303.551L304.007 20.252H308.795V41.038C308.795 43.014 308.402 44.6733 307.617 46.016C306.857 47.3587 305.704 48.372 304.159 49.056C302.613 49.7653 300.701 50.12 298.421 50.12C296.951 50.12 295.583 50.0313 294.317 49.854C293.075 49.6767 291.859 49.36 290.669 48.904V44.382C291.53 44.7367 292.391 45.028 293.253 45.256C294.139 45.5093 295.039 45.6867 295.951 45.788C296.888 45.9147 297.825 45.978 298.763 45.978C300.232 45.978 301.321 45.5853 302.031 44.8C302.765 44.0147 303.133 42.8367 303.133 41.266V40.848C303.133 40.4173 303.145 39.974 303.171 39.518C303.221 39.062 303.259 38.6567 303.285 38.302H303.133C302.423 39.3913 301.575 40.1767 300.587 40.658C299.599 41.1393 298.484 41.38 297.243 41.38C294.785 41.38 292.86 40.4427 291.467 38.568C290.099 36.668 289.415 34.0333 289.415 30.664C289.415 28.384 289.731 26.446 290.365 24.85C290.998 23.2287 291.91 22 293.101 21.164C294.317 20.3027 295.748 19.872 297.395 19.872ZM299.181 24.47C298.294 24.47 297.547 24.7107 296.939 25.192C296.356 25.648 295.913 26.3447 295.609 27.282C295.33 28.194 295.191 29.3467 295.191 30.74C295.191 32.8173 295.52 34.3753 296.179 35.414C296.837 36.4273 297.863 36.934 299.257 36.934C299.991 36.934 300.625 36.8453 301.157 36.668C301.689 36.4653 302.119 36.1487 302.449 35.718C302.803 35.262 303.069 34.6793 303.247 33.97C303.424 33.2607 303.513 32.3993 303.513 31.386V30.702C303.513 29.2073 303.361 28.004 303.057 27.092C302.753 26.18 302.284 25.5213 301.651 25.116C301.017 24.6853 300.194 24.47 299.181 24.47ZM323.645 19.872C325.571 19.872 327.217 20.2393 328.585 20.974C329.979 21.7087 331.055 22.7727 331.815 24.166C332.575 25.5593 332.955 27.2693 332.955 29.296V32.032H319.579C319.63 33.628 320.099 34.882 320.985 35.794C321.897 36.706 323.151 37.162 324.747 37.162C326.09 37.162 327.306 37.0353 328.395 36.782C329.485 36.5033 330.612 36.0853 331.777 35.528V39.898C330.764 40.4047 329.687 40.772 328.547 41C327.433 41.2533 326.077 41.38 324.481 41.38C322.404 41.38 320.567 41 318.971 40.24C317.375 39.4547 316.121 38.2767 315.209 36.706C314.297 35.1353 313.841 33.1593 313.841 30.778C313.841 28.346 314.247 26.332 315.057 24.736C315.893 23.1147 317.046 21.8987 318.515 21.088C319.985 20.2773 321.695 19.872 323.645 19.872ZM323.683 23.9C322.594 23.9 321.682 24.2547 320.947 24.964C320.238 25.6733 319.82 26.7753 319.693 28.27H327.635C327.635 27.434 327.483 26.6867 327.179 26.028C326.901 25.3693 326.47 24.85 325.887 24.47C325.305 24.09 324.57 23.9 323.683 23.9ZM349.517 19.872C349.795 19.872 350.125 19.8847 350.505 19.91C350.885 19.9353 351.189 19.9733 351.417 20.024L350.999 25.344C350.821 25.2933 350.555 25.2553 350.201 25.23C349.871 25.1793 349.58 25.154 349.327 25.154C348.592 25.154 347.883 25.2553 347.199 25.458C346.515 25.6353 345.894 25.9267 345.337 26.332C344.805 26.7373 344.374 27.282 344.045 27.966C343.741 28.6247 343.589 29.448 343.589 30.436V41H337.927V20.252H342.221L343.057 23.748H343.323C343.728 23.0387 344.235 22.3927 344.843 21.81C345.451 21.2273 346.147 20.7587 346.933 20.404C347.743 20.0493 348.605 19.872 349.517 19.872Z" fill="black"/>
</svg>
