<svg width="30" height="30" viewBox="0 0 30 30" fill="none" xmlns="http://www.w3.org/2000/svg">
<path d="M12.0874 4.13745L14.9999 6.24995L17.9124 4.13745" stroke="black" stroke-width="2" stroke-linecap="round" stroke-linejoin="round"/>
<path d="M3.7749 14.4125L6.6749 12.3L5.5749 8.875" stroke="black" stroke-width="2" stroke-linecap="round" stroke-linejoin="round"/>
<path d="M22.5 22.5L20.1 22.45L19.1875 25.425" stroke="black" stroke-width="2" stroke-linecap="round" stroke-linejoin="round"/>
<path d="M7.5 22.5L9.9 22.45L10.8125 25.425" stroke="black" stroke-width="2" stroke-linecap="round" stroke-linejoin="round"/>
<path d="M24.4377 8.875L23.3252 12.3L26.2252 14.4125" stroke="black" stroke-width="2" stroke-linecap="round" stroke-linejoin="round"/>
<path d="M26.25 15C26.25 17.225 25.5902 19.4001 24.354 21.2502C23.1179 23.1002 21.3609 24.5422 19.3052 25.3936C17.2495 26.2451 14.9875 26.4679 12.8052 26.0338C10.623 25.5998 8.61839 24.5283 7.04505 22.955C5.47171 21.3816 4.40025 19.3771 3.96617 17.1948C3.53209 15.0125 3.75487 12.7505 4.60636 10.6948C5.45785 8.63914 6.89979 6.88213 8.74984 5.64597C10.5999 4.4098 12.775 3.75 15 3.75C17.9837 3.75 20.8452 4.93526 22.955 7.04505C25.0647 9.15483 26.25 12.0163 26.25 15V15ZM15 10V6.25V10ZM10.5125 13.3125L6.67501 12.3L10.5125 13.3125ZM12.3 18.75L9.86251 22.5L12.3 18.75ZM17.7 18.75L20.1375 22.5L17.7 18.75ZM19.375 13.3375L23.325 12.3L19.375 13.3375ZM15 10L10.625 13.3375L12.3 18.75H17.7L19.375 13.3375L15 10Z" stroke="black" stroke-width="2" stroke-linecap="round" stroke-linejoin="round"/>
</svg>
