<svg width="24" height="24" viewBox="0 0 24 24" fill="none" xmlns="http://www.w3.org/2000/svg">
<path d="M6.99829 2.99072C4.78929 2.99072 2.99829 4.78172 2.99829 6.99072V15.9907V16.9907C2.99829 19.1997 4.78929 20.9907 6.99829 20.9907H16.9983C19.2073 20.9907 20.9983 19.1997 20.9983 16.9907V15.9907V6.99072C20.9983 4.78172 19.2073 2.99072 16.9983 2.99072H6.99829ZM6.99829 4.99072H16.9983C18.1033 4.99072 18.9983 5.88572 18.9983 6.99072L19.0023 13.1867C18.2243 12.4647 17.4313 12.0127 16.5603 11.9907C16.5293 11.9897 16.5303 11.9907 16.4983 11.9907C15.3613 11.9907 14.0973 12.8647 13.2483 13.9597C13.0313 13.4697 12.8123 12.9857 12.5603 12.5217C11.3803 10.3427 10.0913 8.99372 8.49829 8.99072C7.14429 8.98772 5.9823 10.0947 4.9903 11.6107L4.99829 6.99072C4.99829 5.88572 5.89329 4.99072 6.99829 4.99072ZM15.9983 6.99072C15.4463 6.99072 14.9983 7.43872 14.9983 7.99072C14.9983 8.54272 15.4463 8.99072 15.9983 8.99072C16.5503 8.99072 16.9983 8.54272 16.9983 7.99072C16.9983 7.43872 16.5503 6.99072 15.9983 6.99072ZM8.49829 10.9907C9.08029 10.9917 9.9643 11.8977 10.8103 13.4597C11.1463 14.0777 11.4473 14.7587 11.7173 15.4287C11.8793 15.8287 12.0043 16.1347 12.0603 16.3027C12.3333 17.1197 13.4413 17.2357 13.8733 16.4907C13.9163 16.4167 13.9943 16.2747 14.1233 16.0847C14.3393 15.7647 14.5853 15.4407 14.8423 15.1467C15.4843 14.4107 16.1033 13.9907 16.4983 13.9907C16.8973 14.0007 17.5133 14.4197 18.1543 15.1467C18.4143 15.4417 18.6543 15.7647 18.8733 16.0847C18.9423 16.1847 18.9523 16.2317 18.9983 16.3027V16.9907C18.9983 18.0957 18.1033 18.9907 16.9983 18.9907H6.99829C5.89329 18.9907 4.99829 18.0957 4.99829 16.9907V16.1467C5.06129 15.9687 5.1453 15.7577 5.2793 15.4287C5.5523 14.7587 5.84828 14.0787 6.18628 13.4597C7.03928 11.8947 7.91729 10.9897 8.49829 10.9907Z" fill="#2A343D"/>
</svg>
