<svg width="24" height="24" viewBox="0 0 24 24" fill="none" xmlns="http://www.w3.org/2000/svg">
<path d="M5.99878 2.0141C3.78978 2.0141 1.99878 3.80408 1.99878 6.01208C1.99878 7.22208 2.51978 8.29312 3.36978 9.02612C2.51978 9.75912 1.99878 10.7981 1.99878 12.0081V16.0061C1.99878 18.2131 3.78978 20.0141 5.99878 20.0141H12.9978C15.0758 20.0141 16.8028 18.4361 16.9988 16.4111L20.2788 19.7221C20.9088 20.3521 21.9978 19.8941 21.9978 19.0041V9.01007C21.9978 8.56507 21.7208 8.21712 21.3728 8.07312C21.0248 7.92912 20.5938 7.97708 20.2788 8.29107C19.8608 8.70907 18.3348 10.2991 16.9908 11.6421C16.8638 10.3381 16.1428 9.22107 15.0678 8.58807C15.6728 7.88807 15.9978 7.00908 15.9978 6.01208C15.9978 3.80408 14.2078 2.0141 11.9988 2.0141C10.7878 2.0141 9.73178 2.57013 8.99878 3.41913C8.26478 2.57013 7.20878 2.0141 5.99878 2.0141ZM5.99878 4.01312C7.10278 4.01312 7.99878 4.90808 7.99878 6.01208C7.99878 7.11508 7.10278 8.01007 5.99878 8.01007C4.89378 8.01007 3.99878 7.11608 3.99878 6.01208C3.99878 4.90808 4.89378 4.01312 5.99878 4.01312ZM11.9988 4.01312C13.1028 4.01312 13.9978 4.90808 13.9978 6.01208C13.9978 7.11508 13.1028 8.01007 11.9988 8.01007C10.8938 8.01007 9.99878 7.11608 9.99878 6.01208C9.99878 4.90808 10.8938 4.01312 11.9988 4.01312ZM5.99878 10.0201H12.9978C14.1028 10.0201 14.9978 10.9151 14.9978 12.0191V16.0161C14.9978 17.1201 14.1028 18.0151 12.9978 18.0151H5.99878C4.89378 18.0151 3.99878 17.1201 3.99878 16.0161V12.0191C3.99878 10.9151 4.89378 10.0201 5.99878 10.0201ZM19.9978 11.4461V16.5681L17.4358 14.0071C18.1498 13.2931 18.9548 12.4881 19.9978 11.4461Z" fill="#2A343D"/>
</svg>
