<svg width="65" height="64" viewBox="0 0 65 64" fill="none" xmlns="http://www.w3.org/2000/svg">
<rect x="0.5" width="64" height="64" rx="32" fill="#EA5455"/>
<path d="M42.5613 39.938C42.843 40.2198 43.0014 40.602 43.0014 41.0005C43.0014 41.399 42.843 41.7812 42.5613 42.063C42.2795 42.3448 41.8973 42.5031 41.4988 42.5031C41.1002 42.5031 40.718 42.3448 40.4363 42.063L32.5 34.1242L24.5613 42.0605C24.2795 42.3423 23.8973 42.5006 23.4988 42.5006C23.1002 42.5006 22.718 42.3423 22.4363 42.0605C22.1545 41.7787 21.9962 41.3965 21.9962 40.998C21.9962 40.5995 22.1545 40.2173 22.4363 39.9355L30.375 31.9992L22.4388 24.0605C22.157 23.7787 21.9987 23.3965 21.9987 22.998C21.9987 22.5995 22.157 22.2173 22.4388 21.9355C22.7205 21.6537 23.1027 21.4954 23.5013 21.4954C23.8998 21.4954 24.282 21.6537 24.5638 21.9355L32.5 29.8742L40.4388 21.9342C40.7205 21.6524 41.1027 21.4941 41.5013 21.4941C41.8998 21.4941 42.282 21.6524 42.5638 21.9342C42.8455 22.216 43.0039 22.5982 43.0039 22.9967C43.0039 23.3953 42.8455 23.7775 42.5638 24.0592L34.625 31.9992L42.5613 39.938Z" fill="white"/>
</svg>
